<svg width="19" height="20" viewBox="0 0 19 20" fill="none" xmlns="http://www.w3.org/2000/svg">
<path d="M9.2 13.8593C7.08 13.8593 5.33999 12.1393 5.33999 9.9993C5.33999 7.8793 7.06 6.13929 9.2 6.13929C11.32 6.13929 13.06 7.8593 13.06 9.9993C13.06 12.1193 11.32 13.8593 9.2 13.8593ZM9.2 7.55931C7.86 7.55931 6.76001 8.6593 6.76001 9.9993C6.76001 11.3393 7.86 12.4393 9.2 12.4393C10.54 12.4393 11.64 11.3393 11.64 9.9993C11.64 8.6593 10.54 7.55931 9.2 7.55931ZM9.2 19.1993H9.1C8.4 19.1993 7.80001 19.1193 7.76001 19.1193C7.44001 19.0793 7.19999 18.8393 7.13999 18.5193L6.93999 17.0793C6.49999 16.9393 6.08 16.7593 5.68 16.5393L4.53999 17.3993C4.27999 17.5993 3.94 17.5793 3.68 17.3993C3.66 17.3793 3.18 16.9993 2.68 16.5193L2.6 16.4393C2.1 15.9393 1.74 15.4593 1.72 15.4393C1.52 15.1793 1.52 14.8393 1.72 14.5793L2.6 13.4193C2.38 13.0193 2.22 12.5793 2.08 12.1393L0.680005 11.9393C0.360005 11.8993 0.120005 11.6393 0.0800049 11.3193C0.0800049 11.2993 0 10.6793 0 9.9793V9.8793C0 9.1793 0.0800049 8.57929 0.0800049 8.53929C0.120005 8.21929 0.360005 7.97929 0.680005 7.91929L2.12 7.71929C2.26 7.27929 2.44001 6.85931 2.66001 6.45931L1.8 5.31929C1.6 5.05929 1.62 4.71931 1.8 4.45931C1.82 4.43931 2.2 3.95931 2.68 3.45931L2.76001 3.3793C3.26001 2.8793 3.74001 2.5193 3.76001 2.4993C4.02001 2.2993 4.36 2.2993 4.62 2.4993L5.78 3.3793C6.18 3.1593 6.62001 2.99931 7.06001 2.85931L7.26001 1.45931C7.30001 1.13931 7.56 0.899307 7.88001 0.859307C7.90001 0.859307 8.52 0.779302 9.22 0.779302H9.32C10.02 0.779302 10.62 0.859307 10.66 0.859307C10.98 0.899307 11.22 1.13931 11.28 1.45931L11.48 2.8993C11.92 3.0393 12.34 3.21929 12.74 3.43929L13.88 2.5793C14.14 2.3793 14.48 2.3993 14.74 2.5793C14.76 2.5993 15.24 2.97931 15.74 3.45931L15.82 3.53929C16.32 4.03929 16.68 4.51929 16.7 4.53929C16.9 4.79929 16.9 5.1393 16.7 5.3993L15.82 6.55931C16.04 6.95931 16.2 7.39929 16.34 7.83929L17.74 8.03929C18.06 8.07929 18.3 8.33931 18.34 8.65931C18.34 8.67931 18.42 9.2993 18.42 9.9993V10.0993C18.42 10.7993 18.34 11.3993 18.34 11.4393C18.3 11.7593 18.06 11.9993 17.74 12.0593L16.3 12.2593C16.16 12.6993 15.98 13.1193 15.76 13.5193L16.62 14.6593C16.82 14.9193 16.8 15.2593 16.62 15.5193C16.6 15.5393 16.22 16.0193 15.74 16.5193L15.66 16.5993C15.16 17.0993 14.68 17.4593 14.66 17.4793C14.4 17.6793 14.06 17.6793 13.8 17.4793L12.64 16.5993C12.24 16.8193 11.8 16.9793 11.36 17.1193L11.16 18.5193C11.12 18.8393 10.86 19.0793 10.54 19.1193C10.5 19.1193 9.9 19.1993 9.2 19.1993ZM8.48001 17.7593C8.66001 17.7793 8.88 17.7793 9.1 17.7793H9.2C9.42 17.7793 9.64 17.7793 9.82 17.7593L10 16.4393C10.04 16.1393 10.26 15.9193 10.54 15.8393C11.16 15.6993 11.76 15.4593 12.3 15.1193C12.46 15.0193 12.66 14.9993 12.84 15.0393C12.94 15.0593 13.04 15.1193 13.12 15.1793L14.18 15.9793C14.32 15.8593 14.48 15.7193 14.64 15.5593L14.72 15.4793C14.88 15.3193 15.02 15.1593 15.14 15.0193L14.34 13.9593C14.16 13.7193 14.16 13.3993 14.3 13.1593C14.64 12.6393 14.88 12.0593 15.02 11.4593C15.08 11.1593 15.32 10.9193 15.62 10.8793L16.96 10.6993C16.98 10.5193 16.98 10.2993 16.98 10.0793V9.9793C16.98 9.7593 16.98 9.53931 16.96 9.35931L15.64 9.1793C15.36 9.1393 15.12 8.91929 15.06 8.63929C14.92 8.01929 14.68 7.4393 14.36 6.8993C14.32 6.8593 14.3 6.79929 14.28 6.73929C14.2 6.51929 14.24 6.2593 14.38 6.0793L15.2 4.9993C15.08 4.8593 14.94 4.69929 14.78 4.53929L14.7 4.45931C14.54 4.29931 14.38 4.15929 14.24 4.03929L13.18 4.83929C12.92 5.01929 12.58 5.01929 12.34 4.83929C11.82 4.51929 11.24 4.27929 10.64 4.11929C10.36 4.05929 10.14 3.81929 10.1 3.51929L9.92 2.1793C9.74 2.1593 9.52 2.15931 9.3 2.15931H9.2C8.98 2.15931 8.76001 2.1593 8.58001 2.1793L8.4 3.4993C8.36 3.8193 8.12 4.0593 7.8 4.0993C7.2 4.2393 6.62 4.4793 6.1 4.7993C5.94 4.8993 5.74001 4.9193 5.56001 4.8793C5.46001 4.8593 5.36 4.79929 5.28 4.73929L4.23999 3.93929C4.09999 4.05929 3.94 4.19931 3.78 4.35931L3.7 4.43929C3.54 4.59929 3.4 4.7593 3.28 4.8993L4.08 5.95931C4.26 6.19931 4.26 6.49931 4.12 6.75931C4.1 6.77931 4.1 6.79929 4.08 6.81929C3.76 7.33929 3.52 7.91929 3.38 8.51929C3.32 8.79929 3.08 9.01931 2.78 9.05931L1.43999 9.23929C1.41999 9.41929 1.42 9.63931 1.42 9.85931V9.95931C1.42 10.1793 1.41999 10.3993 1.43999 10.5793L2.76001 10.7593C3.08001 10.7993 3.32001 11.0393 3.36001 11.3593V11.3793C3.50001 11.9793 3.74001 12.5393 4.06001 13.0593C4.16001 13.2393 4.2 13.4593 4.12 13.6593C4.1 13.7393 4.04 13.8193 3.98 13.8993L3.2 14.9393C3.32 15.0793 3.46 15.2393 3.62 15.3993L3.7 15.4793C3.86 15.6393 4.02001 15.7793 4.16001 15.8993L5.22 15.0993C5.48 14.8993 5.86 14.9193 6.1 15.1193C6.62 15.4393 7.18001 15.6593 7.76001 15.7993C8.04001 15.8593 8.26 16.0993 8.3 16.3993L8.48001 17.7593Z" fill="white"/>
</svg>
